<?xml version="1.0" standalone="no"?>
<!DOCTYPE svg PUBLIC "-//W3C//DTD SVG 20010904//EN"
 "http://www.w3.org/TR/2001/REC-SVG-20010904/DTD/svg10.dtd">
<svg version="1.0" xmlns="http://www.w3.org/2000/svg"
 width="1386.000000pt" height="1386.000000pt" viewBox="0 0 1386.000000 1386.000000"
 preserveAspectRatio="xMidYMid meet">
<metadata>
Created by potrace 1.11, written by Peter Selinger 2001-2013
</metadata>
<g transform="translate(0.000000,1386.000000) scale(0.100000,-0.100000)"
fill="#000000" stroke="none">
<path d="M6788 11155 c-2 -2 -55 -5 -118 -9 -63 -3 -131 -8 -150 -10 -19 -3
-62 -7 -95 -11 -33 -3 -116 -15 -185 -26 -69 -11 -138 -23 -155 -25 -16 -3
-43 -9 -60 -14 -16 -4 -48 -12 -70 -16 -22 -4 -44 -8 -50 -10 -5 -2 -20 -5
-31 -8 -12 -2 -73 -19 -135 -36 -63 -18 -118 -33 -124 -34 -5 -2 -17 -6 -25
-9 -8 -3 -40 -13 -70 -23 -243 -75 -612 -242 -861 -390 -405 -240 -789 -554
-1079 -883 -36 -41 -69 -79 -75 -85 -29 -32 -105 -127 -135 -169 -19 -26 -45
-60 -58 -75 -97 -117 -280 -421 -397 -657 -127 -257 -222 -504 -295 -765 -12
-41 -23 -82 -25 -90 -11 -38 -76 -359 -80 -395 -2 -22 -7 -51 -10 -65 -9 -44
-38 -345 -39 -408 0 -21 -4 -23 -53 -19 -29 1 -53 0 -53 -3 0 -3 -135 -4 -299
-4 l-299 2 -1 -177 c0 -97 0 -182 -1 -188 0 -9 -11 -11 -33 -9 -53 8 -149 18
-197 22 -55 4 -155 14 -193 19 -15 2 -60 6 -100 10 -40 4 -83 8 -97 10 -14 2
-59 6 -100 10 -41 4 -83 9 -93 11 -10 2 -54 6 -98 9 -43 3 -88 8 -100 10 -11
2 -50 7 -87 10 -37 3 -83 8 -102 10 -19 2 -64 6 -100 10 -36 3 -76 8 -90 10
-14 2 -63 7 -110 11 -47 3 -92 7 -100 9 -8 1 -49 6 -90 10 l-74 7 17 -23 c9
-13 23 -35 31 -49 8 -14 132 -209 276 -435 145 -225 283 -443 309 -483 25 -40
58 -91 73 -115 66 -103 66 -87 0 -190 -125 -195 -249 -391 -307 -482 -33 -53
-129 -204 -214 -338 -85 -133 -161 -252 -169 -264 -14 -23 -14 -23 29 -18 24
2 69 7 99 9 30 3 87 8 125 11 127 11 228 21 310 30 22 3 72 7 110 10 67 5 98
8 210 20 28 2 80 7 116 10 37 3 82 7 100 9 19 3 66 8 104 11 39 4 88 8 110 10
22 2 72 6 110 10 88 7 158 14 215 20 25 3 77 7 115 10 39 4 90 8 115 11 25 3
70 7 100 9 60 5 143 13 205 20 22 2 72 7 110 10 39 4 88 8 110 10 22 2 72 7
110 10 39 3 86 8 105 10 19 2 67 7 105 10 39 4 84 8 100 9 17 2 68 6 115 10
l85 7 44 -78 c41 -73 201 -318 234 -359 9 -11 50 -64 93 -119 42 -55 104 -131
138 -170 89 -103 346 -361 428 -430 39 -33 76 -65 82 -70 28 -27 265 -210 297
-230 9 -5 54 -36 101 -67 226 -151 496 -297 748 -403 219 -92 619 -220 783
-249 15 -2 35 -7 45 -10 19 -6 61 -14 112 -21 19 -3 44 -8 56 -10 12 -3 39 -7
60 -10 21 -3 48 -7 59 -10 11 -2 47 -7 80 -10 33 -3 71 -8 85 -11 151 -26 780
-26 995 1 17 2 55 6 85 10 30 3 66 8 80 10 14 3 41 7 60 10 616 95 1247 340
1783 692 92 61 335 237 347 252 3 4 19 17 35 30 134 103 467 432 596 591 168
206 295 385 409 578 l43 74 51 -6 c67 -8 120 -13 336 -31 36 -3 88 -8 115 -11
28 -2 77 -7 110 -9 33 -3 78 -8 100 -10 22 -2 72 -7 110 -10 39 -3 88 -8 110
-10 22 -2 69 -7 105 -10 36 -3 92 -8 125 -11 77 -8 123 -12 210 -19 39 -3 88
-7 110 -9 22 -2 74 -7 115 -11 91 -7 160 -14 220 -20 25 -2 74 -7 110 -10 36
-3 88 -8 115 -10 125 -12 164 -15 225 -20 36 -3 85 -7 110 -10 25 -3 72 -7
105 -10 33 -2 86 -7 119 -11 32 -3 77 -7 100 -9 108 -8 213 -17 234 -20 27 -4
28 4 5 36 -10 13 -22 32 -28 41 -5 10 -59 94 -120 188 -60 94 -117 183 -126
198 -9 15 -118 186 -243 380 l-226 354 166 261 c189 297 243 382 353 552 124
193 241 382 241 389 0 4 -3 5 -8 2 -4 -2 -39 -7 -77 -11 -39 -3 -86 -8 -105
-11 -19 -2 -62 -7 -95 -9 -33 -3 -76 -7 -95 -10 -19 -2 -71 -7 -115 -11 -44
-3 -93 -8 -110 -10 -16 -2 -55 -6 -85 -9 -30 -3 -98 -10 -150 -15 -52 -6 -113
-12 -135 -15 -22 -2 -71 -7 -110 -10 -38 -3 -83 -8 -100 -10 -16 -2 -59 -6
-95 -10 -128 -11 -301 -28 -427 -41 l-53 -6 0 185 0 184 -140 1 c-77 0 -144 4
-150 7 -5 3 -10 2 -10 -2 0 -5 -15 -8 -32 -6 -41 5 -99 4 -108 -2 -4 -3 -21 5
-36 17 -16 12 -23 15 -16 8 18 -20 15 -32 -5 -22 -10 5 -24 7 -31 5 -7 -3 -23
3 -35 13 -19 16 -20 17 -8 2 13 -17 8 -23 -14 -18 -5 1 -19 3 -30 4 -17 1 -20
9 -22 56 -1 30 -4 75 -7 100 -3 25 -8 70 -10 100 -3 30 -8 73 -11 95 -3 22
-10 74 -16 115 -59 415 -194 847 -393 1255 -97 196 -220 416 -238 423 -4 2 -8
8 -8 13 0 13 -122 189 -213 309 -470 614 -1125 1120 -1822 1407 -139 58 -156
65 -170 69 -5 2 -75 26 -155 53 -208 72 -482 143 -645 166 -16 3 -41 7 -55 10
-14 3 -41 7 -60 10 -19 2 -69 9 -110 14 -75 11 -158 19 -260 27 -63 5 -498 13
-502 9z"/>
<path d="M11755 6940 c3 -5 8 -10 11 -10 2 0 4 5 4 10 0 6 -5 10 -11 10 -5 0
-7 -4 -4 -10z"/>
</g>
</svg>
