<?xml version="1.0" encoding="utf-8"?>
<!-- Generator: Adobe Illustrator 21.1.0, SVG Export Plug-In . SVG Version: 6.00 Build 0)  -->
<svg version="1.1" id="Capa_1" xmlns="http://www.w3.org/2000/svg" xmlns:xlink="http://www.w3.org/1999/xlink" x="0px" y="0px"
	 viewBox="0 0 800 800" style="enable-background:new 0 0 800 800;" xml:space="preserve">
<style type="text/css">
	.st0{fill:#1A0735;}
	.st1{fill:#FC025C;}
	.st2{fill:#FFC700;}
	.st3{fill:#00EAE9;}
	.st4{fill:#031727;}
	.st5{fill:#0B877D;}
	.st6{fill:#88F9D4;}
	.st7{fill:#18C29C;}
	.st8{fill:#35478C;}
	.st9{fill:#7FB2F0;}
	.st10{fill:#4E7AC7;}
	.st11{fill:#242424;}
	.st12{fill:#0F97D3;}
	.st13{fill:#58C7ED;}
	.st14{fill:#23A7F1;}
	.st15{fill:#FFFFFF;}
	.st16{font-family:'Montserrat-Regular';}
	.st17{font-size:50.8461px;}
</style>
<g>
	<g>
		<g>
			<path class="st1" d="M437.2,517.2c-3,0-6-0.4-9-1.1c-10.9-2.7-20.2-9.9-26.2-20.4L299.4,317.5h104.2l69.3,128
				c12,22.1,4.8,46.2-13.8,64.7C453.2,516,444.8,517.2,437.2,517.2z"/>
		</g>
	</g>
	<g>
		<g>
			<path class="st2" d="M440.3,517.1c-5.8,0-11.4-0.4-16.5-3.9C409,503,404.4,481,413.4,464.3l50.6-93.5h78.7l-75.6,131.4
				c-4.6,8-11.8,12-20,14C444.8,516.9,442.6,517.1,440.3,517.1z M461,497.1"/>
		</g>
	</g>
	<g>
		<g>
			<path class="st3" d="M560,513.9c-8.2-2-15.5-3.7-20-11.7l-75.6-131.4h78.7l50.6,93.5c9,16.7,4.4,38.7-10.5,48.9
				c-5.1,3.5-10.6,1.5-16.4,1.5C564.5,514.7,562.3,514.5,560,513.9z M537.3,381.8"/>
		</g>
	</g>
	<g>
		<g>
			<path class="st1" d="M569,517.2c-7.7,0-15.2-2.4-21.9-7c-19.6-13.6-25.8-42.6-13.8-64.7l69.3-128h104.2L604.2,495.7
				c-6,10.5-15.3,17.7-26.2,20.4C575,516.8,572,517.2,569,517.2z"/>
		</g>
	</g>
</g>
<g>
	<g>
		<path class="st3" d="M268.7,320.7c8.2,2,15.5,3.7,20,11.7l75.6,131.4h-78.7L235,370.3c-9-16.7-4.4-38.7,10.5-48.9
			c5.1-3.5,10.6-1.5,16.4-1.5C264.1,319.9,266.4,320.2,268.7,320.7z M291.4,452.8"/>
	</g>
	<g>
		<path class="st2" d="M259.6,317.5c7.7,0,15.2,2.4,21.9,7c19.6,13.6,25.8,42.6,13.8,64.7l-69.3,128H121.9L224.5,339
			c6-10.5,15.3-17.7,26.2-20.4C253.7,317.8,256.7,317.5,259.6,317.5z"/>
	</g>
</g>
<text transform="matrix(1 0 0 1 203.0254 608.4648)" class="st15 st16 st17">armandotuweb</text>
</svg>
