<?xml version="1.0" encoding="utf-8"?>
<!-- Generator: Adobe Illustrator 21.1.0, SVG Export Plug-In . SVG Version: 6.00 Build 0)  -->
<svg version="1.1" id="Capa_1" xmlns="http://www.w3.org/2000/svg" xmlns:xlink="http://www.w3.org/1999/xlink" x="0px" y="0px"
	 viewBox="0 0 97.3 60" style="enable-background:new 0 0 97.3 60;" xml:space="preserve">
<style type="text/css">
	.st0{fill:#1A0735;}
	.st1{fill:#FC025C;}
	.st2{fill:#FFC700;}
	.st3{fill:#00EAE9;}
	.st4{fill:#031727;}
	.st5{fill:#0B877D;}
	.st6{fill:#88F9D4;}
	.st7{fill:#18C29C;}
	.st8{fill:#35478C;}
	.st9{fill:#7FB2F0;}
	.st10{fill:#4E7AC7;}
	.st11{fill:#242424;}
	.st12{fill:#0F97D3;}
	.st13{fill:#58C7ED;}
	.st14{fill:#23A7F1;}
</style>
<g>
	<g>
		<g>
			<path class="st1" d="M51.7,46.1c-0.4,0-0.8-0.1-1.2-0.2c-1.4-0.4-2.7-1.6-3.5-3.4L33.5,13h13.8l9.2,21.2
				c1.6,3.7,0.6,7.6-1.8,10.7C53.8,45.9,52.7,46.1,51.7,46.1z"/>
		</g>
	</g>
	<g>
		<g>
			<path class="st2" d="M52.1,46.1c-0.8,0-1.5-0.1-2.2-0.6c-2-1.7-2.6-5.3-1.4-8.1l6.7-15.5h10.4l-10,21.8c-0.6,1.3-1.6,2-2.6,2.3
				C52.7,46.1,52.4,46.1,52.1,46.1z M54.9,42.8"/>
		</g>
	</g>
	<g>
		<g>
			<path class="st3" d="M68,45.6c-1.1-0.3-2-0.6-2.6-1.9l-10-21.8h10.4l6.7,15.5c1.2,2.8,0.6,6.4-1.4,8.1c-0.7,0.6-1.4,0.3-2.2,0.3
				C68.5,45.7,68.2,45.7,68,45.6z M64.9,23.7"/>
		</g>
	</g>
	<g>
		<g>
			<path class="st1" d="M69.1,46.1c-1,0-2-0.4-2.9-1.2c-2.6-2.2-3.4-7.1-1.8-10.7L73.6,13h13.8L73.8,42.5c-0.8,1.7-2,2.9-3.5,3.4
				C69.9,46,69.5,46.1,69.1,46.1z"/>
		</g>
	</g>
</g>
<g>
	<g>
		<path class="st3" d="M29.5,13.6c1.1,0.3,2,0.6,2.6,1.9l10,21.8H31.7L25,21.8c-1.2-2.8-0.6-6.4,1.4-8.1c0.7-0.6,1.4-0.3,2.2-0.3
			C28.9,13.4,29.2,13.5,29.5,13.6z M32.5,35.4"/>
	</g>
	<g>
		<path class="st2" d="M28.3,13c1,0,2,0.4,2.9,1.2c2.6,2.2,3.4,7.1,1.8,10.7l-9.2,21.2H10.1l13.6-29.5c0.8-1.7,2-2.9,3.5-3.4
			C27.5,13.1,27.9,13,28.3,13z"/>
	</g>
</g>
</svg>
