<?xml version="1.0" encoding="utf-8"?>
<!-- Generator: Adobe Illustrator 21.1.0, SVG Export Plug-In . SVG Version: 6.00 Build 0)  -->
<svg version="1.1" id="Capa_1" xmlns="http://www.w3.org/2000/svg" xmlns:xlink="http://www.w3.org/1999/xlink" x="0px" y="0px"
	 viewBox="0 0 800 800" style="enable-background:new 0 0 800 800;" xml:space="preserve">
<style type="text/css">
	.st0{fill:#1A0735;}
	.st1{fill:#FC025C;}
	.st2{fill:#FFC700;}
	.st3{fill:#00EAE9;}
	.st4{fill:#FFFFFF;}
	.st5{font-family:'Montserrat-Regular';}
	.st6{font-size:50.8461px;}
	.st7{fill:#031727;}
	.st8{fill:#0B877D;}
	.st9{fill:#88F9D4;}
	.st10{fill:#18C29C;}
	.st11{fill:#35478C;}
	.st12{fill:#7FB2F0;}
	.st13{fill:#4E7AC7;}
	.st14{fill:#242424;}
	.st15{fill:#0F97D3;}
	.st16{fill:#58C7ED;}
	.st17{fill:#23A7F1;}
</style>
<rect x="-6.1" y="-6.6" class="st0" width="810.9" height="814.2"/>
<g>
	<g>
		<g>
			<path class="st1" d="M436.6,509.3c-3,0-6-0.4-9-1.1c-10.9-2.7-20.2-9.9-26.2-20.4L298.8,309.6H403l69.3,128
				c12,22.1,4.8,46.2-13.8,64.7C452.6,508.1,444.2,509.3,436.6,509.3z"/>
		</g>
	</g>
	<g>
		<g>
			<path class="st2" d="M439.7,509.2c-5.8,0-11.4-0.4-16.5-3.9c-14.8-10.3-19.5-32.2-10.5-48.9l50.6-93.5h78.7l-75.6,131.4
				c-4.6,7.9-11.8,12-20,14C444.2,509,441.9,509.2,439.7,509.2z M460.4,489.2"/>
		</g>
	</g>
	<g>
		<g>
			<path class="st3" d="M559.4,506c-8.2-2-15.5-3.7-20-11.7L463.7,363h78.7l50.6,93.5c9,16.7,4.4,38.7-10.5,48.9
				c-5.1,3.5-10.6,1.5-16.4,1.5C563.9,506.9,561.6,506.6,559.4,506z M536.7,373.9"/>
		</g>
	</g>
	<g>
		<g>
			<path class="st1" d="M568.4,509.3c-7.7,0-15.2-2.4-21.9-7c-19.6-13.6-25.8-42.6-13.8-64.7l69.3-128h104.2L603.6,487.8
				c-6,10.5-15.3,17.7-26.2,20.4C574.4,508.9,571.4,509.3,568.4,509.3z"/>
		</g>
	</g>
</g>
<g>
	<g>
		<path class="st3" d="M268.1,312.8c8.2,2,15.5,3.7,20,11.7l75.6,131.4H285l-50.6-93.5c-9-16.7-4.4-38.7,10.5-48.9
			c5.1-3.5,10.6-1.5,16.4-1.5C263.5,312,265.8,312.3,268.1,312.8z M290.8,444.9"/>
	</g>
	<g>
		<path class="st2" d="M259,309.6c7.7,0,15.2,2.4,21.9,7c19.6,13.6,25.8,42.6,13.8,64.7l-69.3,128H121.3l102.6-178.2
			c6-10.5,15.3-17.7,26.2-20.4C253,309.9,256,309.6,259,309.6z"/>
	</g>
</g>
<text transform="matrix(1 0 0 1 202.405 600.5725)" class="st4 st5 st6">armandotuweb</text>
</svg>
