<?xml version="1.0" encoding="utf-8"?>
<!-- Generator: Adobe Illustrator 21.1.0, SVG Export Plug-In . SVG Version: 6.00 Build 0)  -->
<svg version="1.1" id="Capa_1" xmlns="http://www.w3.org/2000/svg" xmlns:xlink="http://www.w3.org/1999/xlink" x="0px" y="0px"
	 viewBox="0 0 800 424.9" style="enable-background:new 0 0 800 424.9;" xml:space="preserve">
<style type="text/css">
	.st0{fill:#1A0735;}
	.st1{fill:#FC025C;}
	.st2{fill:#FFC700;}
	.st3{fill:#00EAE9;}
	.st4{fill:#031727;}
	.st5{fill:#0B877D;}
	.st6{fill:#88F9D4;}
	.st7{fill:#18C29C;}
	.st8{fill:#35478C;}
	.st9{fill:#7FB2F0;}
	.st10{fill:#4E7AC7;}
	.st11{fill:#242424;}
	.st12{fill:#0F97D3;}
	.st13{fill:#58C7ED;}
	.st14{fill:#23A7F1;}
	.st15{fill:#F6F6F6;}
	.st16{font-family:'Montserrat-Regular';}
	.st17{font-size:50.8461px;}
</style>
<g>
	<g>
		<g>
			<path class="st1" d="M423.2,266.7c-3,0-6-0.4-9-1.1c-10.9-2.7-20.2-9.9-26.2-20.4L285.4,66.9h104.2l69.3,128
				c12,22.1,4.8,46.2-13.8,64.7C439.2,265.5,430.8,266.7,423.2,266.7z"/>
		</g>
	</g>
	<g>
		<g>
			<path class="st2" d="M426.3,266.6c-5.8,0-11.4-0.4-16.5-3.9c-14.8-10.3-19.5-32.2-10.5-48.9l50.6-93.5h78.7l-75.6,131.4
				c-4.6,7.9-11.8,12-20,14C430.8,266.4,428.6,266.6,426.3,266.6z M447,246.6"/>
		</g>
	</g>
	<g>
		<g>
			<path class="st3" d="M546,263.4c-8.2-2-15.5-3.7-20-11.7l-75.6-131.4H529l50.6,93.5c9,16.7,4.4,38.7-10.5,48.9
				c-5.1,3.5-10.6,1.5-16.4,1.5C550.5,264.2,548.2,264,546,263.4z M523.3,131.3"/>
		</g>
	</g>
	<g>
		<g>
			<path class="st1" d="M555,266.7c-7.7,0-15.2-2.4-21.9-7c-19.6-13.6-25.8-42.6-13.8-64.7l69.3-128h104.2L590.2,245.2
				c-6,10.5-15.3,17.7-26.2,20.4C561,266.3,558,266.7,555,266.7z"/>
		</g>
	</g>
</g>
<g>
	<g>
		<path class="st3" d="M254.7,70.2c8.2,2,15.5,3.7,20,11.7l75.6,131.4h-78.7L221,119.8c-9-16.7-4.4-38.7,10.5-48.9
			c5.1-3.5,10.6-1.5,16.4-1.5C250.1,69.4,252.4,69.6,254.7,70.2z M277.4,202.3"/>
	</g>
	<g>
		<path class="st2" d="M245.6,66.9c7.7,0,15.2,2.4,21.9,7c19.6,13.6,25.8,42.6,13.8,64.7l-69.3,128H107.9L210.5,88.5
			c6-10.5,15.3-17.7,26.2-20.4C239.6,67.3,242.6,66.9,245.6,66.9z"/>
	</g>
</g>
<text transform="matrix(1 0 0 1 189.0172 357.9587)" class="st15 st16 st17">armandotuweb</text>
</svg>
