<svg xmlns="http://www.w3.org/2000/svg" xmlns:xlink="http://www.w3.org/1999/xlink" viewBox="0 0 283.84 144"><defs><style>.cls-1{isolation:isolate;}.cls-2{fill:url(#radial-gradient);}.cls-3{mix-blend-mode:multiply;}.cls-4{fill:url(#linear-gradient);}.cls-5{fill:url(#linear-gradient-2);}.cls-6{fill:url(#linear-gradient-3);}.cls-7{fill:url(#linear-gradient-4);}.cls-8{fill:url(#linear-gradient-5);}.cls-9{fill:url(#linear-gradient-6);}.cls-10{fill:url(#linear-gradient-7);}.cls-11{fill:url(#linear-gradient-8);}.cls-12{fill:url(#linear-gradient-9);}.cls-13{fill:url(#linear-gradient-10);}.cls-14{fill:url(#linear-gradient-11);}.cls-15{fill:url(#linear-gradient-12);}.cls-16{fill:url(#linear-gradient-13);}.cls-17{fill:url(#linear-gradient-14);}.cls-18{fill:url(#linear-gradient-15);}.cls-19{fill:url(#linear-gradient-16);}.cls-20{fill:url(#linear-gradient-17);}.cls-21{fill:url(#linear-gradient-18);}.cls-22{fill:url(#linear-gradient-19);}.cls-23{fill:url(#linear-gradient-20);}.cls-24{fill:url(#linear-gradient-21);}.cls-25{fill:url(#linear-gradient-22);}.cls-26{fill:url(#linear-gradient-23);}.cls-27{fill:url(#linear-gradient-24);}.cls-28{fill:url(#linear-gradient-25);}.cls-29{fill:url(#linear-gradient-26);}.cls-30{fill:url(#linear-gradient-27);}.cls-31{fill:url(#linear-gradient-28);}.cls-32{fill:url(#linear-gradient-29);}.cls-33{fill:url(#linear-gradient-30);}.cls-34{fill:url(#linear-gradient-31);}.cls-35{fill:url(#linear-gradient-32);}.cls-36{fill:url(#linear-gradient-33);}.cls-37{fill:url(#linear-gradient-34);}.cls-38{fill:url(#linear-gradient-35);}.cls-39{fill:url(#linear-gradient-36);}.cls-40{fill:url(#linear-gradient-37);}.cls-41{fill:url(#linear-gradient-38);}.cls-42{fill:url(#linear-gradient-39);}.cls-43{fill:url(#linear-gradient-40);}.cls-44{fill:url(#linear-gradient-41);}.cls-45{fill:url(#linear-gradient-42);}.cls-46{fill:url(#linear-gradient-43);}.cls-47{fill:url(#linear-gradient-44);}.cls-48{fill:url(#linear-gradient-45);}.cls-49{fill:url(#linear-gradient-46);}.cls-50{fill:url(#linear-gradient-47);}.cls-51{fill:url(#linear-gradient-48);}.cls-52{fill:url(#linear-gradient-49);}.cls-53{fill:url(#linear-gradient-50);}.cls-54{fill:url(#linear-gradient-51);}.cls-55{fill:url(#linear-gradient-52);}.cls-56{fill:url(#linear-gradient-53);}.cls-57{fill:url(#linear-gradient-54);}.cls-58{fill:url(#linear-gradient-55);}.cls-59{fill:url(#linear-gradient-56);}.cls-60{fill:url(#linear-gradient-57);}.cls-61{fill:url(#linear-gradient-58);}</style><radialGradient id="radial-gradient" cx="75.48" cy="72" r="82.97" gradientTransform="translate(-6.86) scale(1.97 1)" gradientUnits="userSpaceOnUse"><stop offset="0.5" stop-color="#fff"/><stop offset="1" stop-color="#d7d1c1"/></radialGradient><linearGradient id="linear-gradient" x1="107.79" y1="63.84" x2="218.26" y2="63.84" gradientUnits="userSpaceOnUse"><stop offset="0" stop-color="#e81f26"/><stop offset="0.15" stop-color="#ffed00"/><stop offset="0.33" stop-color="#ec008c"/><stop offset="0.75" stop-color="#812e8f"/><stop offset="1" stop-color="#00bef1"/></linearGradient><linearGradient id="linear-gradient-2" x1="107.78" y1="71.22" x2="218.27" y2="71.22" xlink:href="#linear-gradient"/><linearGradient id="linear-gradient-3" x1="107.78" y1="64.13" x2="218.26" y2="64.13" xlink:href="#linear-gradient"/><linearGradient id="linear-gradient-4" x1="107.79" y1="75.32" x2="218.25" y2="75.32" xlink:href="#linear-gradient"/><linearGradient id="linear-gradient-5" x1="107.79" y1="75.82" x2="218.26" y2="75.82" xlink:href="#linear-gradient"/><linearGradient id="linear-gradient-6" x1="107.79" y1="57.89" x2="218.26" y2="57.89" xlink:href="#linear-gradient"/><linearGradient id="linear-gradient-7" x1="107.79" y1="56.32" x2="218.25" y2="56.32" xlink:href="#linear-gradient"/><linearGradient id="linear-gradient-8" x1="107.79" y1="62.41" x2="218.27" y2="62.41" xlink:href="#linear-gradient"/><linearGradient id="linear-gradient-9" x1="107.79" y1="79.11" x2="218.25" y2="79.11" xlink:href="#linear-gradient"/><linearGradient id="linear-gradient-10" x1="107.79" y1="77.34" x2="218.26" y2="77.34" xlink:href="#linear-gradient"/><linearGradient id="linear-gradient-11" x1="107.78" y1="69.58" x2="218.25" y2="69.58" xlink:href="#linear-gradient"/><linearGradient id="linear-gradient-12" x1="220.12" y1="72" x2="85.2" y2="72" xlink:href="#linear-gradient"/><linearGradient id="linear-gradient-13" x1="220.11" y1="93.12" x2="85.21" y2="93.12" xlink:href="#linear-gradient"/><linearGradient id="linear-gradient-14" x1="220.11" y1="75.59" x2="85.2" y2="75.59" xlink:href="#linear-gradient"/><linearGradient id="linear-gradient-15" x1="220.12" y1="99.34" x2="85.2" y2="99.34" xlink:href="#linear-gradient"/><linearGradient id="linear-gradient-16" x1="220.12" y1="92.51" x2="85.2" y2="92.51" xlink:href="#linear-gradient"/><linearGradient id="linear-gradient-17" x1="220.11" y1="87.31" x2="85.21" y2="87.31" xlink:href="#linear-gradient"/><linearGradient id="linear-gradient-18" x1="220.11" y1="74.51" x2="85.21" y2="74.51" xlink:href="#linear-gradient"/><linearGradient id="linear-gradient-19" x1="220.11" y1="67.94" x2="85.2" y2="67.94" xlink:href="#linear-gradient"/><linearGradient id="linear-gradient-20" x1="220.12" y1="57.58" x2="85.2" y2="57.58" xlink:href="#linear-gradient"/><linearGradient id="linear-gradient-21" x1="220.12" y1="37.99" x2="85.2" y2="37.99" xlink:href="#linear-gradient"/><linearGradient id="linear-gradient-22" x1="220.11" y1="64.29" x2="85.21" y2="64.29" xlink:href="#linear-gradient"/><linearGradient id="linear-gradient-23" x1="220.11" y1="56.31" x2="85.21" y2="56.31" xlink:href="#linear-gradient"/><linearGradient id="linear-gradient-24" x1="220.12" y1="74.94" x2="85.19" y2="74.94" xlink:href="#linear-gradient"/><linearGradient id="linear-gradient-25" x1="217.62" y1="77.51" x2="82.7" y2="77.51" xlink:href="#linear-gradient"/><linearGradient id="linear-gradient-26" x1="220.11" y1="91.26" x2="85.21" y2="91.26" xlink:href="#linear-gradient"/><linearGradient id="linear-gradient-27" x1="-273.05" y1="163.64" x2="-363.72" y2="163.64" gradientTransform="translate(-174.4 251.75) rotate(180)" xlink:href="#linear-gradient"/><linearGradient id="linear-gradient-28" x1="-273.07" y1="177.84" x2="-363.71" y2="177.84" gradientTransform="translate(-174.4 251.75) rotate(180)" xlink:href="#linear-gradient"/><linearGradient id="linear-gradient-29" x1="-273.06" y1="166.05" x2="-363.71" y2="166.05" gradientTransform="translate(-174.4 251.75) rotate(180)" xlink:href="#linear-gradient"/><linearGradient id="linear-gradient-30" x1="-273.06" y1="182.01" x2="-363.72" y2="182.01" gradientTransform="translate(-174.4 251.75) rotate(180)" xlink:href="#linear-gradient"/><linearGradient id="linear-gradient-31" x1="-273.05" y1="177.42" x2="-363.72" y2="177.42" gradientTransform="translate(-174.4 251.75) rotate(180)" xlink:href="#linear-gradient"/><linearGradient id="linear-gradient-32" x1="-273.06" y1="173.93" x2="-363.71" y2="173.93" gradientTransform="translate(-174.4 251.75) rotate(180)" xlink:href="#linear-gradient"/><linearGradient id="linear-gradient-33" x1="-273.06" y1="165.33" x2="-363.72" y2="165.33" gradientTransform="translate(-174.4 251.75) rotate(180)" xlink:href="#linear-gradient"/><linearGradient id="linear-gradient-34" x1="-273.06" y1="160.91" x2="-363.71" y2="160.91" gradientTransform="translate(-174.4 251.75) rotate(180)" xlink:href="#linear-gradient"/><linearGradient id="linear-gradient-35" x1="-273.05" y1="153.95" x2="-363.72" y2="153.95" gradientTransform="translate(-174.4 251.75) rotate(180)" xlink:href="#linear-gradient"/><linearGradient id="linear-gradient-36" x1="-273.06" y1="140.79" x2="-363.72" y2="140.79" gradientTransform="translate(-174.4 251.75) rotate(180)" xlink:href="#linear-gradient"/><linearGradient id="linear-gradient-37" x1="-273.05" y1="158.46" x2="-363.72" y2="158.46" gradientTransform="translate(-174.4 251.75) rotate(180)" xlink:href="#linear-gradient"/><linearGradient id="linear-gradient-38" x1="-273.06" y1="153.1" x2="-363.71" y2="153.1" gradientTransform="translate(-174.4 251.75) rotate(180)" xlink:href="#linear-gradient"/><linearGradient id="linear-gradient-39" x1="-273.06" y1="165.62" x2="-363.71" y2="165.62" gradientTransform="translate(-174.4 251.75) rotate(180)" xlink:href="#linear-gradient"/><linearGradient id="linear-gradient-40" x1="-273.06" y1="168.24" x2="-363.72" y2="168.24" gradientTransform="translate(-174.4 251.75) rotate(180)" xlink:href="#linear-gradient"/><linearGradient id="linear-gradient-41" x1="-273.06" y1="172.68" x2="-363.71" y2="172.68" gradientTransform="translate(-174.4 251.75) rotate(180)" xlink:href="#linear-gradient"/><linearGradient id="linear-gradient-42" x1="-273.06" y1="176.59" x2="-363.72" y2="176.59" gradientTransform="translate(-174.4 251.75) rotate(180)" xlink:href="#linear-gradient"/><linearGradient id="linear-gradient-43" x1="166.06" y1="109.1" x2="45.67" y2="109.1" xlink:href="#linear-gradient"/><linearGradient id="linear-gradient-44" x1="166.06" y1="92.1" x2="45.67" y2="92.1" xlink:href="#linear-gradient"/><linearGradient id="linear-gradient-45" x1="166.04" y1="98.98" x2="45.68" y2="98.98" xlink:href="#linear-gradient"/><linearGradient id="linear-gradient-46" x1="166.05" y1="90.8" x2="45.68" y2="90.8" xlink:href="#linear-gradient"/><linearGradient id="linear-gradient-47" x1="166.05" y1="91.47" x2="45.67" y2="91.47" xlink:href="#linear-gradient"/><linearGradient id="linear-gradient-48" x1="166.05" y1="74.65" x2="45.68" y2="74.65" xlink:href="#linear-gradient"/><linearGradient id="linear-gradient-49" x1="166.05" y1="83.71" x2="45.68" y2="83.71" xlink:href="#linear-gradient"/><linearGradient id="linear-gradient-50" x1="166.05" y1="83.37" x2="45.67" y2="83.37" xlink:href="#linear-gradient"/><linearGradient id="linear-gradient-51" x1="72.92" y1="71.66" x2="183.41" y2="72.21" xlink:href="#linear-gradient"/><linearGradient id="linear-gradient-52" x1="69.88" y1="80.36" x2="180.36" y2="80.91" xlink:href="#linear-gradient"/><linearGradient id="linear-gradient-53" x1="69.9" y1="76.47" x2="180.39" y2="77.02" xlink:href="#linear-gradient"/><linearGradient id="linear-gradient-54" x1="69.87" y1="83.21" x2="180.33" y2="83.76" xlink:href="#linear-gradient"/><linearGradient id="linear-gradient-55" x1="69.91" y1="74.06" x2="180.4" y2="74.61" xlink:href="#linear-gradient"/><linearGradient id="linear-gradient-56" x1="69.87" y1="81.4" x2="180.37" y2="81.95" xlink:href="#linear-gradient"/><linearGradient id="linear-gradient-57" x1="26.69" y1="80.62" x2="99.8" y2="83.92" xlink:href="#linear-gradient"/><linearGradient id="linear-gradient-58" x1="26.08" y1="94.21" x2="99.18" y2="97.51" xlink:href="#linear-gradient"/></defs><title>Ativo 1</title><g class="cls-1"><g id="Camada_2" data-name="Camada 2"><g id="Layer_1" data-name="Layer 1"><rect class="cls-2" width="283.84" height="144"/><g class="cls-3"><rect class="cls-4" x="170.53" y="59.49" width="8.69" height="8.69" rx="1.16" ry="1.16"/><rect class="cls-5" x="163.75" y="67.09" width="8.25" height="8.25" rx="1.1" ry="1.1"/><rect class="cls-6" x="150.49" y="57.96" width="12.35" height="12.35" rx="1.65" ry="1.65"/><rect class="cls-7" x="143.99" y="70.62" width="9.39" height="9.39" rx="1.25" ry="1.25"/><rect class="cls-8" x="125.8" y="69.79" width="12.07" height="12.07" rx="1.61" ry="1.61"/><path class="cls-9" d="M136.79,55.21h3.93a.72.72,0,0,1,.72.72v3.93a.72.72,0,0,1-.72.72h-3.93a.71.71,0,0,1-.71-.71V55.92A.71.71,0,0,1,136.79,55.21Z"/><rect class="cls-10" x="117.7" y="50.73" width="11.18" height="11.18" rx="1.49" ry="1.49"/><rect class="cls-11" x="110.04" y="58.09" width="8.64" height="8.64" rx="1.15" ry="1.15"/><rect class="cls-12" x="108.37" y="76.15" width="5.91" height="5.91" rx="0.79" ry="0.79"/><rect class="cls-13" x="95.71" y="73.26" width="8.15" height="8.15" rx="1.09" ry="1.09"/><rect class="cls-14" x="87.18" y="64.43" width="10.3" height="10.3" rx="1.37" ry="1.37"/></g><g class="cls-3"><rect class="cls-15" x="89.57" y="67.62" width="8.76" height="8.76" rx="1.17" ry="1.17"/><rect class="cls-16" x="96.45" y="89.91" width="6.42" height="6.42" rx="0.86" ry="0.86"/><rect class="cls-17" x="109.64" y="69.84" width="11.49" height="11.49" rx="1.53" ry="1.53"/><rect class="cls-18" x="116.11" y="92.64" width="13.4" height="13.4" rx="1.79" ry="1.79"/><rect class="cls-19" x="134.39" y="88.81" width="7.4" height="7.39" rx="0.99" ry="0.99"/><rect class="cls-20" x="146.05" y="81.69" width="11.25" height="11.25" rx="1.5" ry="1.5"/><rect class="cls-21" x="162.69" y="70.62" width="7.79" height="7.79" rx="1.04" ry="1.04"/><rect class="cls-22" x="141.92" y="60.11" width="15.65" height="15.65" rx="2.09" ry="2.09"/><rect class="cls-23" x="149.58" y="49.87" width="15.43" height="15.43" rx="2.06" ry="2.06"/><rect class="cls-24" x="156.41" y="31.5" width="12.97" height="12.96" rx="1.73" ry="1.73"/><rect class="cls-25" x="167.6" y="60.85" width="6.87" height="6.87" rx="0.92" ry="0.92"/><path class="cls-26" d="M184.5,50.22h8.93a1.63,1.63,0,0,1,1.63,1.63v8.93a1.62,1.62,0,0,1-1.62,1.62H184.5a1.62,1.62,0,0,1-1.62-1.62V51.84A1.62,1.62,0,0,1,184.5,50.22Z"/><path class="cls-27" d="M182.26,70.39h6.69a1.21,1.21,0,0,1,1.21,1.21v6.68a1.22,1.22,0,0,1-1.22,1.22h-6.69A1.21,1.21,0,0,1,181,78.29V71.6A1.22,1.22,0,0,1,182.26,70.39Z"/><rect class="cls-28" x="188.74" y="71.74" width="11.53" height="11.53" rx="1.54" ry="1.54"/><path class="cls-29" d="M170.2,77.33h20.44A3.72,3.72,0,0,1,194.36,81v20.44a3.72,3.72,0,0,1-3.72,3.72H170.2a3.72,3.72,0,0,1-3.72-3.72V81A3.71,3.71,0,0,1,170.2,77.33Z"/></g><g class="cls-3"><rect class="cls-30" x="180.49" y="85.16" width="5.89" height="5.89" rx="0.79" ry="0.79"/><path class="cls-31" d="M178,71.75h3.17a.58.58,0,0,1,.58.58v3.17a.57.57,0,0,1-.57.57H178a.58.58,0,0,1-.58-.58V72.33A.58.58,0,0,1,178,71.75Z"/><rect class="cls-32" x="165.17" y="81.83" width="7.72" height="7.72" rx="1.03" ry="1.03"/><rect class="cls-33" x="159.54" y="65.23" width="9" height="9" rx="1.2" ry="1.2"/><rect class="cls-34" x="151.29" y="71.84" width="4.97" height="4.97" rx="0.66" ry="0.66"/><rect class="cls-35" x="140.87" y="74.03" width="7.56" height="7.56" rx="1.01" ry="1.01"/><rect class="cls-36" x="132.01" y="83.8" width="5.23" height="5.23" rx="0.7" ry="0.7"/><rect class="cls-37" x="140.69" y="85.58" width="10.51" height="10.51" rx="1.4" ry="1.4"/><rect class="cls-38" x="135.69" y="92.61" width="10.37" height="10.37" rx="1.38" ry="1.38"/><rect class="cls-39" x="132.75" y="106.6" width="8.71" height="8.71" rx="1.16" ry="1.16"/><rect class="cls-40" x="129.32" y="90.98" width="4.62" height="4.62" rx="0.62" ry="0.62"/><rect class="cls-41" x="115.49" y="94.55" width="8.19" height="8.19" rx="1.09" ry="1.09"/><rect class="cls-42" x="118.78" y="83.06" width="6.12" height="6.13" rx="0.82" ry="0.82"/><rect class="cls-43" x="110.31" y="79.63" width="7.75" height="7.75" rx="1.03" ry="1.03"/><rect class="cls-44" x="101.7" y="75.46" width="7.22" height="7.22" rx="0.96" ry="0.96"/><rect class="cls-45" x="115.96" y="65.79" width="18.73" height="18.73" rx="2.5" ry="2.5"/></g><g class="cls-3"><rect class="cls-46" x="78.5" y="106.74" width="4.73" height="4.73" rx="0.63" ry="0.63"/><rect class="cls-47" x="79.34" y="86.9" width="10.41" height="10.41" rx="1.39" ry="1.39"/><rect class="cls-48" x="92.13" y="95.94" width="6.07" height="6.07" rx="0.81" ry="0.81"/><rect class="cls-49" x="83.9" y="87.78" width="6.03" height="6.03" rx="0.8" ry="0.8"/><rect class="cls-50" x="100.67" y="86.02" width="10.89" height="10.89" rx="1.45" ry="1.45"/><rect class="cls-51" x="106.36" y="69.83" width="9.65" height="9.65" rx="1.29" ry="1.29"/><path class="cls-52" d="M118.53,80.16h5.2a.94.94,0,0,1,.94.94v5.2a.95.95,0,0,1-.95.95h-5.19a.95.95,0,0,1-.95-.95V81.11A.95.95,0,0,1,118.53,80.16Z"/><path class="cls-53" d="M135.21,77.77h8.23a1.5,1.5,0,0,1,1.5,1.5v8.23a1.5,1.5,0,0,1-1.5,1.5h-8.23a1.49,1.49,0,0,1-1.49-1.49V79.26A1.49,1.49,0,0,1,135.21,77.77Z"/></g><g class="cls-3"><rect class="cls-54" x="60.46" y="69.49" width="4.25" height="4.25" rx="0.57" ry="0.57"/><rect class="cls-55" x="64.43" y="76.83" width="7.05" height="7.05" rx="0.94" ry="0.94"/><rect class="cls-56" x="71.73" y="72.58" width="7.83" height="7.83" rx="1.04" ry="1.04"/><rect class="cls-57" x="79.29" y="80.86" width="4.82" height="4.82" rx="0.64" ry="0.64"/><rect class="cls-58" x="85.61" y="69.57" width="9.18" height="9.18" rx="1.22" ry="1.22"/><rect class="cls-59" x="94.47" y="79.52" width="4.02" height="4.02" rx="0.54" ry="0.54"/></g><g class="cls-3"><path class="cls-60" d="M62.35,79h4.87a.89.89,0,0,1,.89.89v4.87a.88.88,0,0,1-.88.88H62.35a.89.89,0,0,1-.89-.89V79.91A.89.89,0,0,1,62.35,79Z"/><rect class="cls-61" x="64.86" y="92.64" width="6.97" height="6.97" rx="0.93" ry="0.93"/></g></g></g></g></svg>