<svg xmlns="http://www.w3.org/2000/svg" xmlns:xlink="http://www.w3.org/1999/xlink" viewBox="0 0 79.63 71.23"><defs><style>.cls-1{fill:url(#Magenta);}.cls-2{fill:url(#Blue);}.cls-3{fill:url(#Orange_Yellow);}.cls-4{fill:url(#Magenta-2);}.cls-5{fill:url(#Blue-2);}.cls-6{fill:url(#Orange_Yellow-2);}</style><linearGradient id="Magenta" x1="-11.25" y1="5.79" x2="70.97" y2="90.28" gradientUnits="userSpaceOnUse"><stop offset="0" stop-color="#d471ad"/><stop offset="0.5" stop-color="#c7158c"/><stop offset="1" stop-color="#9d248e"/></linearGradient><linearGradient id="Blue" x1="2009.7" y1="42.74" x2="2047.8" y2="42.74" gradientTransform="matrix(-1, 0, 0, 1, 2089.33, 0)" gradientUnits="userSpaceOnUse"><stop offset="0" stop-color="#2bc4f3"/><stop offset="0.5" stop-color="#00aeee"/><stop offset="1" stop-color="#0095da"/></linearGradient><linearGradient id="Orange_Yellow" x1="94.78" y1="13.3" x2="-19.97" y2="13.3" gradientUnits="userSpaceOnUse"><stop offset="0" stop-color="#fff33b"/><stop offset="0.04" stop-color="#fee72e"/><stop offset="0.12" stop-color="#fed51b"/><stop offset="0.2" stop-color="#fdca10"/><stop offset="0.28" stop-color="#fdc70c"/><stop offset="0.67" stop-color="#f3903f"/><stop offset="0.89" stop-color="#ed683c"/><stop offset="1" stop-color="#e93e3a"/></linearGradient><linearGradient id="Magenta-2" x1="12.58" y1="42.74" x2="25.82" y2="42.74" xlink:href="#Magenta"/><linearGradient id="Blue-2" x1="54.71" y1="42.74" x2="67.96" y2="42.74" gradientTransform="matrix(1, 0, 0, 1, 0, 0)" xlink:href="#Blue"/><linearGradient id="Orange_Yellow-2" x1="38.46" y1="-28.27" x2="38.46" y2="48.54" gradientTransform="translate(0.09 -0.52) rotate(0.77)" xlink:href="#Orange_Yellow"/></defs><title>Ativo 2</title><g id="Camada_2" data-name="Camada 2"><g id="Camada_1-2" data-name="Camada 1"><path class="cls-1" d="M30.28,71.23V43.54s-.4-6.35-4.13-8.83C21.43,31.59,0,19.26,0,19.26l9.4-5,19,11s10.93,5,10.93,17.46V66.41Z"/><path class="cls-2" d="M49.78,71.23V43.54s.42-6.64,3.85-8.83c4.76-3,26-15.45,26-15.45l-9.47-5-18.33,11a19.86,19.86,0,0,0-10.3,17.46V66.41Z"/><path class="cls-3" d="M70.78.63,45.9,15.81s-5.33,2.67-9.46.6C31.39,13.88,10.78.63,10.78.63V11.31l18,11.21s9.59,7,20.58,1.11c9.92-5.27,21.41-12.32,21.41-12.32Z"/><path class="cls-4" d="M25.82,42.74a6.62,6.62,0,1,1-6.62-6.62A6.62,6.62,0,0,1,25.82,42.74Z"/><path class="cls-5" d="M68,42.74a6.63,6.63,0,1,1-6.62-6.62A6.63,6.63,0,0,1,68,42.74Z"/><circle class="cls-6" cx="38.46" cy="6.62" r="6.62" transform="translate(-0.09 0.52) rotate(-0.77)"/></g></g></svg>