<?xml version="1.0" encoding="iso-8859-1"?>
<!-- Generator: Adobe Illustrator 19.0.0, SVG Export Plug-In . SVG Version: 6.00 Build 0)  -->
<svg version="1.1" id="Layer_1" xmlns="http://www.w3.org/2000/svg" xmlns:xlink="http://www.w3.org/1999/xlink" x="0px" y="0px"
	 viewBox="0 0 491.52 491.52" style="enable-background:new 0 0 491.52 491.52;" xml:space="preserve">
<path style="fill:#64798A;" d="M469.453,0H22.066C9.879,0,0,9.88,0,22.067v447.387c0,12.187,9.879,22.067,22.066,22.067h447.387
	c12.185,0,22.067-9.88,22.067-22.067V22.067C491.52,9.88,481.639,0,469.453,0z"/>
<g>
	<rect x="35.748" y="91.361" style="fill:#EBF0F3;" width="420.045" height="364.39"/>
	<rect x="35.748" y="31.703" style="fill:#EBF0F3;" width="300.339" height="25.405"/>
</g>
<rect x="35.748" y="442.317" style="fill:#D5D6DB;" width="420.045" height="13.435"/>
<circle style="fill:#FCD462;" cx="363.827" cy="44.406" r="12.703"/>
<circle style="fill:#44C4A1;" cx="403.456" cy="44.406" r="12.703"/>
<g>
	<circle style="fill:#E56353;" cx="443.085" cy="44.406" r="12.703"/>
	<rect x="58.45" y="136.187" style="fill:#E56353;" width="101.724" height="101.724"/>
</g>
<rect x="58.45" y="309.197" style="fill:#27A2DB;" width="101.724" height="101.724"/>
<rect x="58.45" y="217.984" style="fill:#D15241;" width="101.724" height="19.922"/>
<rect x="58.45" y="391.014" style="fill:#2D93BA;" width="101.724" height="19.922"/>
<g>
	<rect x="194.765" y="136.187" style="fill:#D5D6DB;" width="235.571" height="17.874"/>
	<rect x="194.765" y="180.224" style="fill:#D5D6DB;" width="235.571" height="17.874"/>
	<rect x="194.765" y="224.276" style="fill:#D5D6DB;" width="127.939" height="17.874"/>
	<rect x="194.765" y="307.103" style="fill:#D5D6DB;" width="235.571" height="17.874"/>
	<rect x="194.765" y="351.13" style="fill:#D5D6DB;" width="235.571" height="17.874"/>
	<rect x="194.765" y="395.213" style="fill:#D5D6DB;" width="127.939" height="17.874"/>
</g>
<g>
</g>
<g>
</g>
<g>
</g>
<g>
</g>
<g>
</g>
<g>
</g>
<g>
</g>
<g>
</g>
<g>
</g>
<g>
</g>
<g>
</g>
<g>
</g>
<g>
</g>
<g>
</g>
<g>
</g>
</svg>
